<svg id="Layer_1" data-name="Layer 1" xmlns="http://www.w3.org/2000/svg" viewBox="0 0 183.57 34.07"><defs><style>.cls-1{fill:#dc8d63;}.cls-2{fill:#ffba94;}.cls-3{fill:#ffcc80;}.cls-4{fill:#ff9b5c;}.cls-5{fill:#ff6874;}.cls-6{fill:#53332c;}.cls-7{fill:#00965a;}.cls-8{fill:#00693d;}.cls-9{fill:#ff928f;}.cls-10{fill:#009265;}.cls-11{fill:#fff;}.cls-12{fill:#ffdb00;}.cls-13{fill:#111;}</style></defs><path class="cls-1" d="M26.73,1.79a2,2,0,0,0-1-.15l-.87,0c-.34,0-.68,0-1,0-.15,0-.3,0-.46,0h-.46l-1,0c-.63,0-1.26.06-1.89,0l-1.89-.06c-.33,0-.67,0-1,0a.91.91,0,0,0-.7.27,1.18,1.18,0,0,0-.23.59,10.27,10.27,0,0,0-.45,2.25c-.48,2.36-.94,4.72-1.42,7.08-.24,1.21-.49,2.41-.74,3.61-.14.66-.68,1.68-.25,2.32.75,1.15,3.44.78,4.61.82.81,0,1.62.07,2.44.09l2.71.07a.77.77,0,0,0,.74-.52c.29-.95.47-1.94.68-2.91s.41-2,.59-2.95c.33-1.69.73-3.37,1.14-5.05a17.34,17.34,0,0,0,.91-4.65A1,1,0,0,0,26.73,1.79Z"/><path class="cls-2" d="M26.41,5.34a1.34,1.34,0,0,0-1.11-.26h-4c-1.76,0-3.53,0-5.29.06a.29.29,0,0,0-.28.32.29.29,0,0,0,.28.33c1.76,0,3.53,0,5.29.06h3.91c.4,0,.86.07,1.17-.26A.2.2,0,0,0,26.41,5.34Z"/><path class="cls-3" d="M10.23,4.29A2.29,2.29,0,0,0,9,7.12a6.58,6.58,0,0,0,1.6,3.19,14.62,14.62,0,0,0,1.33,1.15,3,3,0,0,1,.55.58,2.44,2.44,0,0,1,.27.93c.37,2.18,3.23,3.06,4.31,4.87.2.34.84.29.82-.17l-.09-2.26a3,3,0,0,0-.37-1.84c-.35-.42-1-.57-1-1.19s.3-1.16.28-1.77A2.59,2.59,0,0,0,16.12,9a4.77,4.77,0,0,0-1.46-1,2.28,2.28,0,0,1-.79-1.35,4.83,4.83,0,0,0-.74-1.49A2.62,2.62,0,0,0,10.23,4.29Z"/><path class="cls-4" d="M15.56,12.69c-.29-.3-.57-.6-.84-.91-.52-.6-1-1.21-1.49-1.86s-.88-1.32-1.28-2-.77-1.45-1.22-2.14a.06.06,0,0,0-.11,0,9,9,0,0,0,.86,2.25,20.58,20.58,0,0,0,1.28,2.17,23.25,23.25,0,0,0,1.48,1.95c.27.31.55.61.84.91a1.89,1.89,0,0,0,1,.69c.12,0,.22-.07.19-.19A2,2,0,0,0,15.56,12.69Z"/><path class="cls-4" d="M3.63,7.53c-1.17,1.11-.86,2.6,0,3.82A8.06,8.06,0,0,0,7,14.15,16.9,16.9,0,0,0,9,14.79a3.84,3.84,0,0,1,.91.39,2.91,2.91,0,0,1,.76.91c1.5,2.27,5.16,1.85,7.27,3.36.39.28,1.09-.08.84-.59-.41-.84-.81-1.67-1.22-2.5-.33-.68-.61-1.53-1.33-1.89s-1.37-.17-1.67-.88-.23-1.45-.55-2.13A3.2,3.2,0,0,0,12.61,10a6,6,0,0,0-2.13-.37A2.91,2.91,0,0,1,8.92,8.47a5.62,5.62,0,0,0-1.57-1.3A3.19,3.19,0,0,0,3.63,7.53Z"/><path class="cls-3" d="M13.09,13.86a3.18,3.18,0,0,0-1.17-.6l-1.12-.4a12.61,12.61,0,0,1-2.13-1.1,14,14,0,0,1-1.93-1.49,11.23,11.23,0,0,1-.84-.85c-.14-.14-.27-.29-.41-.44a.94.94,0,0,0-.43-.33S5,8.67,5,8.71c0,.34.33.71.54,1s.54.66.83,1a14.78,14.78,0,0,0,1.92,1.7,16.75,16.75,0,0,0,2.16,1.37,3.87,3.87,0,0,0,2.5.7A.34.34,0,0,0,13.09,13.86Z"/><path class="cls-5" d="M36.91,10.68A4,4,0,0,0,33.7,7.76,4.56,4.56,0,0,0,31.48,8a8.56,8.56,0,0,1-2,.64,15.41,15.41,0,0,0-2.8,0A3.53,3.53,0,0,0,24.74,10,3.8,3.8,0,0,0,24,11.9a4.21,4.21,0,0,0-.12,1.9c.57,3.54,4.44,4.81,7.55,3.88C34.39,16.79,37.77,14.11,36.91,10.68Z"/><path class="cls-6" d="M30.47,8.51s-.15-.43-.08-.24A1.83,1.83,0,0,1,30.31,8a3.74,3.74,0,0,1-.12-.45l-.06-.26V7.2c0-.39,0-.78-.05-1.17a1.58,1.58,0,0,0-.56-1.2c-.59-.37-1,.62-1.11,1a4.59,4.59,0,0,0,.08,1.61,3.78,3.78,0,0,0,.43,1.16c.24.39.63.87,1.14.85a.5.5,0,0,0,.47-.36A1.06,1.06,0,0,0,30.47,8.51Z"/><path class="cls-7" d="M35.2,5.16a5,5,0,0,0-3.68,0,3.08,3.08,0,0,0-1.95,2.33c1.28-.14,2.47.42,3.78,0a3.11,3.11,0,0,0,2.07-1.94A.33.33,0,0,0,35.2,5.16Z"/><path class="cls-8" d="M34.44,5.9a1.8,1.8,0,0,0-1.13-.32,5.41,5.41,0,0,0-1.32.2,3.83,3.83,0,0,0-1.19.51c-.17.12-.34.26-.49.39a1.09,1.09,0,0,0-.37.43.06.06,0,0,0,.06.07A1.66,1.66,0,0,0,30.46,7L31,6.78c.39-.13.76-.28,1.16-.38a5.62,5.62,0,0,1,1.15-.18l.57-.08A2.37,2.37,0,0,0,34.42,6,.07.07,0,0,0,34.44,5.9Z"/><path class="cls-9" d="M34.59,10.38l0,0Z"/><path class="cls-9" d="M35.51,9.63a1.37,1.37,0,0,0-.8-.85,1.16,1.16,0,0,0-1.14-.06.51.51,0,0,0-.18.67,1.67,1.67,0,0,0,.61.54l0,0h0a1.59,1.59,0,0,1,.13.13l.11.11a.59.59,0,0,0,.23.14l.08,0a.66.66,0,0,0,.69-.07A.64.64,0,0,0,35.51,9.63Z"/><path class="cls-10" d="M34.56,34.07H7A2.7,2.7,0,0,1,4.4,31.52L3.05,16.9a2.75,2.75,0,0,1,2.58-3.11H35.9a2.75,2.75,0,0,1,2.58,3.11L37.13,31.52A2.69,2.69,0,0,1,34.56,34.07Z"/><rect class="cls-11" x="8.63" y="20.8" width="2.34" height="10.73" rx="1.17"/><rect class="cls-11" x="15.93" y="20.8" width="2.34" height="10.73" rx="1.17"/><rect class="cls-11" x="23.69" y="20.8" width="2.34" height="10.73" rx="1.17"/><rect class="cls-11" x="30.69" y="20.8" width="2.34" height="10.73" rx="1.17"/><rect class="cls-11" y="13.46" width="41.51" height="5.18" rx="2.59"/><rect class="cls-10" x="0.01" y="12.42" width="41.51" height="5.18" rx="2.59"/><rect class="cls-6" x="5.05" y="6.26" width="20.67" height="3.83" rx="1.91" transform="translate(11.16 -8.73) rotate(47.97)"/><path class="cls-12" d="M21.81,14.43a.73.73,0,1,1-.73-.73A.73.73,0,0,1,21.81,14.43Z"/><path class="cls-12" d="M37.69,13.88h-3.6a1,1,0,0,0-.74.3,1,1,0,0,0-.25,1.17,1,1,0,0,0,1,.71h3.6A1.09,1.09,0,0,0,37.69,13.88Z"/><path class="cls-12" d="M31.91,15a.91.91,0,0,0-.55-.82,1,1,0,0,0-.47-.13h-.73a1,1,0,0,0,0,1.9h.73a1,1,0,0,0,.29-.05A.94.94,0,0,0,31.91,15Z"/><path class="cls-13" d="M60.32,30.1a12.9,12.9,0,0,1-6.41-1.51,10.14,10.14,0,0,1-4.09-4.29,14,14,0,0,1-1.43-6.54,15.06,15.06,0,0,1,.81-5.09A11,11,0,0,1,51.55,8.8a10,10,0,0,1,3.76-2.48,13.64,13.64,0,0,1,5-.87A14.16,14.16,0,0,1,64,5.93a10.87,10.87,0,0,1,3.17,1.35,2.26,2.26,0,0,1,1,1.08,2.06,2.06,0,0,1,.1,1.22,2,2,0,0,1-.56,1A1.61,1.61,0,0,1,66.6,11a2.27,2.27,0,0,1-1.38-.42,7.48,7.48,0,0,0-2.28-1,10.4,10.4,0,0,0-2.48-.31,7.85,7.85,0,0,0-4.08,1,6.24,6.24,0,0,0-2.52,2.86A11.13,11.13,0,0,0,53,17.76a11.33,11.33,0,0,0,.85,4.59,6.22,6.22,0,0,0,2.52,2.89,8,8,0,0,0,4.08,1A10,10,0,0,0,63,25.9a9,9,0,0,0,2.38-1,2.21,2.21,0,0,1,1.34-.39,1.6,1.6,0,0,1,1,.42,1.76,1.76,0,0,1,.55.94A2,2,0,0,1,68.21,27a2.18,2.18,0,0,1-.82,1,9.9,9.9,0,0,1-3.24,1.51A14.27,14.27,0,0,1,60.32,30.1Z"/><path class="cls-13" d="M73.38,30a2.23,2.23,0,0,1-1.62-.56,2.19,2.19,0,0,1-.56-1.61V15a2.12,2.12,0,0,1,.55-1.59,2,2,0,0,1,1.53-.55,2.07,2.07,0,0,1,1.53.55A2.16,2.16,0,0,1,75.35,15v2.15H75a5.18,5.18,0,0,1,1.87-3.1,7.11,7.11,0,0,1,3.71-1.26,1.39,1.39,0,0,1,1.14.36,2,2,0,0,1,.49,1.31,1.84,1.84,0,0,1-.39,1.38,2.08,2.08,0,0,1-1.38.63l-.75.06a4.93,4.93,0,0,0-3.13,1.28,4.12,4.12,0,0,0-1,3v7A2.22,2.22,0,0,1,75,29.47,2.16,2.16,0,0,1,73.38,30Z"/><path class="cls-13" d="M89.15,30.1a7.08,7.08,0,0,1-3.21-.7,5.47,5.47,0,0,1-2.21-1.89,4.7,4.7,0,0,1-.8-2.68,4.27,4.27,0,0,1,.95-2.91A5.69,5.69,0,0,1,87,20.38a27.33,27.33,0,0,1,5.74-.48h1.7v2.45H92.76a22.9,22.9,0,0,0-3.37.2,3.42,3.42,0,0,0-1.78.7,1.81,1.81,0,0,0-.53,1.38,2.37,2.37,0,0,0,.78,1.83,3.1,3.1,0,0,0,2.18.72,3.71,3.71,0,0,0,3.36-2,4.25,4.25,0,0,0,.51-2.11V19.18a3.39,3.39,0,0,0-.74-2.44A3.48,3.48,0,0,0,90.65,16a10.21,10.21,0,0,0-2.12.24,11.71,11.71,0,0,0-2.4.81,1.61,1.61,0,0,1-1.14.17,1.28,1.28,0,0,1-.77-.56,1.68,1.68,0,0,1-.27-.93,2.1,2.1,0,0,1,.27-1,1.72,1.72,0,0,1,.92-.73,15.27,15.27,0,0,1,3-.91,13.65,13.65,0,0,1,2.64-.28,9.44,9.44,0,0,1,4,.75,5,5,0,0,1,2.36,2.26A8.51,8.51,0,0,1,98,19.7v8.16a2.3,2.3,0,0,1-.51,1.61A1.89,1.89,0,0,1,96,30a1.94,1.94,0,0,1-1.48-.56A2.26,2.26,0,0,1,94,27.86V26.22h.27a4.57,4.57,0,0,1-2.68,3.4A5.78,5.78,0,0,1,89.15,30.1Z"/><path class="cls-13" d="M108.16,30a2.54,2.54,0,0,1-1.48-.44,3.24,3.24,0,0,1-1-1.36l-5.4-12.55a2.62,2.62,0,0,1-.22-1.39,1.47,1.47,0,0,1,.61-1,2.37,2.37,0,0,1,1.44-.39,2,2,0,0,1,1.26.36,2.94,2.94,0,0,1,.85,1.34L108.77,26h-1l4.73-11.49a2.86,2.86,0,0,1,.87-1.31,2.2,2.2,0,0,1,1.34-.36,1.74,1.74,0,0,1,1.19.39,1.7,1.7,0,0,1,.54,1,2.36,2.36,0,0,1-.24,1.38l-5.5,12.58a3,3,0,0,1-1,1.36A2.59,2.59,0,0,1,108.16,30Z"/><path class="cls-13" d="M126.52,30.1a10.5,10.5,0,0,1-4.86-1.05,7.6,7.6,0,0,1-3.15-3,9.17,9.17,0,0,1-1.1-4.59,9.24,9.24,0,0,1,1.07-4.52,7.86,7.86,0,0,1,3-3,8.32,8.32,0,0,1,4.3-1.11,8.42,8.42,0,0,1,3.18.58A6.7,6.7,0,0,1,131.33,15a7.21,7.21,0,0,1,1.53,2.63,10.84,10.84,0,0,1,.53,3.49,1.07,1.07,0,0,1-.43.93,1.9,1.9,0,0,1-1.2.33H120.84V20h9.56l-.55.51a6.47,6.47,0,0,0-.46-2.62,3.55,3.55,0,0,0-1.32-1.62,3.94,3.94,0,0,0-2.16-.56,4.25,4.25,0,0,0-2.43.67A4.13,4.13,0,0,0,122,18.22a7.14,7.14,0,0,0-.53,2.87v.24a5.85,5.85,0,0,0,1.31,4.16,5.07,5.07,0,0,0,3.86,1.38,10.06,10.06,0,0,0,2-.22,7.21,7.21,0,0,0,2.09-.77,2.14,2.14,0,0,1,1.26-.35,1.26,1.26,0,0,1,.86.39,1.45,1.45,0,0,1,.4.83,1.73,1.73,0,0,1-.19,1,2.24,2.24,0,0,1-.87.89,8.74,8.74,0,0,1-2.74,1.1A12.65,12.65,0,0,1,126.52,30.1Z"/><path class="cls-13" d="M138.18,30a2.08,2.08,0,0,1-1.56-.56,2.23,2.23,0,0,1-.55-1.61V15a2.16,2.16,0,0,1,.55-1.59,2.4,2.4,0,0,1,3.06,0,2.16,2.16,0,0,1,.54,1.59v2.32l-.37-.85a5.48,5.48,0,0,1,2.33-2.74,6.84,6.84,0,0,1,3.58-.94,6.5,6.5,0,0,1,3.3.75A4.61,4.61,0,0,1,151,15.8a9.84,9.84,0,0,1,.65,3.83v8.23a2.23,2.23,0,0,1-.55,1.61,2.08,2.08,0,0,1-1.56.56,2,2,0,0,1-2.14-2.17v-8a4.39,4.39,0,0,0-.74-2.82,2.75,2.75,0,0,0-2.26-.88,3.9,3.9,0,0,0-3,1.17,4.34,4.34,0,0,0-1.11,3.11v7.45A1.9,1.9,0,0,1,138.18,30Z"/><path class="cls-13" d="M162.9,30.1a8.14,8.14,0,0,1-3.69-.75A4.79,4.79,0,0,1,157,27.16a8,8,0,0,1-.72-3.59V16.33h-1.76a1.7,1.7,0,0,1-1.26-.43,1.52,1.52,0,0,1-.44-1.17,1.52,1.52,0,0,1,.44-1.19,1.78,1.78,0,0,1,1.26-.41h1.76V10a2.15,2.15,0,0,1,.56-1.6,2.22,2.22,0,0,1,1.59-.54,2.11,2.11,0,0,1,1.56.54,2.18,2.18,0,0,1,.54,1.6v3.09h3.61a1.82,1.82,0,0,1,1.26.41,1.55,1.55,0,0,1,.44,1.19,1.55,1.55,0,0,1-.44,1.17,1.74,1.74,0,0,1-1.26.43h-3.61v7a3.6,3.6,0,0,0,.72,2.45,2.89,2.89,0,0,0,2.31.82,5,5,0,0,0,1-.1,5.66,5.66,0,0,1,.78-.14.81.81,0,0,1,.68.25,1.83,1.83,0,0,1,.27,1.18,3,3,0,0,1-.22,1.2,1.22,1.22,0,0,1-.8.73,9.6,9.6,0,0,1-2.41.38Z"/><path class="cls-13" d="M175.07,30.1a9.17,9.17,0,0,1-4.49-1.05,7.37,7.37,0,0,1-3-3,9.51,9.51,0,0,1-1.06-4.61,10.08,10.08,0,0,1,.6-3.59,7.72,7.72,0,0,1,1.71-2.72,7.37,7.37,0,0,1,2.69-1.73,9.7,9.7,0,0,1,3.5-.6,9.06,9.06,0,0,1,4.49,1.06,7.35,7.35,0,0,1,3,3,9.49,9.49,0,0,1,1,4.59A10.37,10.37,0,0,1,183,25a7.65,7.65,0,0,1-1.72,2.74,7.29,7.29,0,0,1-2.69,1.73A9.7,9.7,0,0,1,175.07,30.1Zm0-3.23a3.81,3.81,0,0,0,3.69-2.43,7.58,7.58,0,0,0,.53-3,6.09,6.09,0,0,0-1.16-4.06A3.83,3.83,0,0,0,175.07,16a4.07,4.07,0,0,0-2.21.6,3.88,3.88,0,0,0-1.48,1.8,7.56,7.56,0,0,0-.52,3A6.18,6.18,0,0,0,172,25.49,3.79,3.79,0,0,0,175.07,26.87Z"/></svg>